# xmcd
#
# Track frame offsets:
#	150
#	16190
#	33185
#	61084
#
# Disc length: 1046 seconds
#
# Revision: 0
# Processed by: cddbd v1.5.2PL0 Copyright (c) Steve Scherf et al.
# Submitted via: audiograbber 1.83.01
#
DISCID=21041404
DTITLE=Will Tang - Love Bites - Enhanced CD Single
DYEAR=2006
DGENRE=Indie
TTITLE0=Love Bites (Votel Remix)
TTITLE1=Travellin' Man (Votel Remix)
TTITLE2=Stories
TTITLE3=Love Bites Video
EXTD=
EXTT0=
EXTT1=
EXTT2=
EXTT3=
PLAYORDER=
